<svg width="24" height="24" viewBox="0 0 47 40" fill="none" xmlns="http://www.w3.org/2000/svg">
<g clip-path="url(#clip0_67_46)">
<path d="M43.962 3.99893V15.9989H31.4738" stroke="white" stroke-width="4.16272" stroke-linecap="round" stroke-linejoin="round"/>
<path d="M38.7369 25.9951C37.384 29.6749 34.8229 32.8325 31.4398 34.9921C28.0568 37.1517 24.035 38.1961 19.9805 37.9681C15.9259 37.7403 12.0583 36.2523 8.96037 33.7283C5.8625 31.2045 3.70217 27.7815 2.805 23.9751C1.9078 20.1689 2.32235 16.1854 3.98615 12.6252C5.64997 9.06495 8.4729 6.12077 12.0295 4.23634C15.5862 2.3519 19.6839 1.62926 23.7051 2.17734C27.7265 2.72544 31.4534 4.51454 34.3244 7.27506L43.9611 15.9951" stroke="white" stroke-width="4.16272" stroke-linecap="round" stroke-linejoin="round"/>
</g>
<defs>
<clipPath id="clip0_67_46">
<rect width="45.7899" height="40" fill="white" transform="translate(0.254395)"/>
</clipPath>
</defs>
</svg>
